<?xml version="1.0" encoding="UTF-8"?>
<svg id="Capa_1" data-name="Capa 1" xmlns="http://www.w3.org/2000/svg" viewBox="0 0 51 45.88">
  <defs>
    <style>
      .cls-1 {
        fill: none;
        stroke: #1d1d1b;
        stroke-miterlimit: 10;
        stroke-width: 2px;
      }

      .cls-2 {
        fill: #1d1d1b;
      }
    </style>
  </defs>
  <rect class="cls-1" x="1" y="1" width="49" height="43.88" rx="12.96" ry="12.96"/>
  <path class="cls-2" d="m26.39,19.04v3.91h.38c2.72,0,5.44,0,8.16,0,1.48,0,2.38.8,2.38,2.13,0,1.2,0,2.4,0,3.61,0,.19.04.28.27.34,1.99.58,3.27,2.39,2.98,4.18-.31,1.93-2.02,3.37-4.07,3.43-2.23.07-4.07-1.18-4.54-3.08-.47-1.92.76-3.87,2.87-4.51.25-.08.32-.18.32-.41-.01-1.23,0-2.46,0-3.72h-8.72c0,.09-.02.17-.02.26,0,1.16,0,2.32,0,3.48,0,.2.05.3.28.36,1.94.57,3.19,2.29,2.98,4.07-.22,1.87-1.81,3.31-3.86,3.53-2.21.23-4.26-1.09-4.75-3.06-.48-1.9.74-3.87,2.81-4.51.29-.09.37-.2.37-.47-.02-1.11,0-2.22,0-3.33v-.35h-8.72c0,.08-.02.17-.02.25,0,1.17,0,2.34,0,3.51,0,.19.04.28.27.34,1.95.57,3.2,2.28,3,4.06-.21,1.86-1.78,3.31-3.85,3.54-2.19.24-4.23-1.06-4.76-3.01-.51-1.91.7-3.9,2.78-4.54.31-.1.39-.21.38-.49-.02-1.17,0-2.34,0-3.51,0-1.31.9-2.12,2.36-2.12,2.72,0,5.44,0,8.16,0h.39v-3.89c-.08,0-.18-.02-.28-.02-.64,0-1.27,0-1.91,0-1.19-.02-2.15-.86-2.15-1.93-.01-1.98-.01-3.95,0-5.93,0-1.05.96-1.91,2.13-1.91,2.22-.01,4.44-.01,6.65,0,1.16,0,2.11.86,2.12,1.89.02,2,.02,3.99,0,5.99-.01,1.04-.97,1.87-2.13,1.89-.73.01-1.45,0-2.22,0Zm2.16-7.8h-6.52v5.83h6.52v-5.83Zm-14.18,19.54c-1.21,0-2.19.88-2.19,1.96,0,1.07.97,1.94,2.16,1.95,1.21,0,2.2-.87,2.21-1.94,0-1.08-.97-1.96-2.18-1.97Zm10.92,0c-1.21,0-2.19.88-2.18,1.96,0,1.07.97,1.94,2.17,1.95,1.21,0,2.2-.87,2.2-1.95,0-1.08-.98-1.96-2.18-1.96Zm10.92,0c-1.21,0-2.19.88-2.19,1.96,0,1.07.98,1.94,2.16,1.95,1.21,0,2.2-.87,2.2-1.95,0-1.08-.97-1.96-2.18-1.96Z"/>
</svg>