<?xml version="1.0" encoding="UTF-8"?>
<svg id="Capa_1" data-name="Capa 1" xmlns="http://www.w3.org/2000/svg" viewBox="0 0 207.05 172.46">
  <path d="m207.05,167.34c-1.48,3.77-4.48,5.13-8.87,5.11-27.09-.09-54.18-.04-81.27-.05-5.89,0-8.53-2.35-8.53-7.6,0-31.8,0-63.61,0-95.41v-2.37c-3.24-.31-6.79.61-9.71-2.42v2.33c0,16.29,0,32.59,0,48.88,0,5.04-2.67,7.48-8.24,7.48-27.36,0-54.72,0-82.08,0C2.64,123.31,0,120.91,0,115.74,0,79.72,0,43.69,0,7.66,0,2.39,2.63.03,8.49.03,28.91.03,49.32.04,69.74,0c1.47,0,2.51.39,3.54,1.32,6.78,6.13,13.61,12.22,20.42,18.33.52.47.92,1.04,1.31,1.49,4.68-2.27,7.83-2.04,10.07.55,2.23,2.58,1.68,5.38-2.09,9.17h2.35c7.61,0,15.23-.02,22.84.01,3.09.01,5.64,1.74,6.39,4.16.75,2.41-.2,5.07-2.63,6.32-1.22.63-2.77.99-4.18,1-7.48.1-14.96.05-22.44.05h-2.49c3.07,2.5,4.67,5.09,2.81,8.36-1.39,2.44-3.86,3.21-6.88,3.03v3.73c2.71-2.81,6.2-1.94,9.37-2.14,1.58-5,3.45-6.25,9.26-6.26,2.29,0,4.59.07,6.87-.05.61-.03,1.49-.51,1.72-.98,2.14-4.56,7.41-5.67,11.12-1.97,2.4,2.38,4.94,3.14,8.44,3.07,11.05-.21,22.1-.14,33.15-.08.93,0,2.05.57,2.75,1.19,8.57,7.6,17.08,15.25,25.6,22.88v94.16ZM68.81,3.66h-2.15c-19.41,0-38.82,0-58.23,0-3.49,0-4.38.81-4.38,3.98,0,36.03,0,72.07,0,108.1,0,3.15.88,3.95,4.42,3.95,11.59,0,23.18,0,34.78,0,15.7,0,31.41,0,47.11,0,3.3,0,4.26-.85,4.26-3.73,0-21,.02-42.01-.05-63.01,0-.84-.51-1.86-1.17-2.48-3.2-3.02-6.54-5.92-9.82-8.87-3.84-3.44-3.88-6.45-.05-9.82,1.75-1.54,3.63-2.96,5.44-4.43-.16-.19-.31-.38-.47-.57-4.03,0-8.05.03-12.08,0-4.6-.05-7.53-2.7-7.62-6.83-.02-.84,0-1.69,0-2.54V3.66Zm76.58,49.2c-.09.15-.18.3-.26.45,1.47,1.24,3,2.42,4.39,3.72,2.32,2.19,2.73,5.49.56,7.56-4.52,4.3-9.21,8.47-13.99,12.55-1.93,1.65-4.47,1.63-6.81.62-2.29-.99-3.43-2.73-3.56-5.07-.13-2.35,1.42-3.88,3.19-5.52h-16.42c-.02.45-.05.75-.05,1.05,0,32.35,0,64.69,0,97.04,0,2.62,1.05,3.52,4.08,3.52,27.36,0,54.72,0,82.07,0,3.51,0,4.41-.81,4.41-3.96,0-28.97,0-57.93,0-86.9v-2.13h-2.38c-5.19,0-10.38.01-15.57,0-5.02-.02-7.85-2.57-7.87-7.1-.02-4.65,0-9.29,0-13.94,0-.63-.06-1.26-.09-1.89h-31.7Zm-32.27-14.17c4.51,0,9.02,0,13.53,0,2.93,0,3.93-.53,3.91-2.06-.01-1.52-1-2.02-3.98-2.02-9.22,0-18.44.03-27.66-.05-.98,0-2.29-.48-2.86-1.14-.92-1.08.23-1.98,1.09-2.76,1.38-1.24,2.76-2.47,4.13-3.72,1.1-1,1.44-2.12.18-3.15-1.16-.95-2.35-.61-3.38.32-3.98,3.59-7.98,7.17-11.94,10.78-1.52,1.38-1.52,2.15,0,3.53,3.97,3.6,7.99,7.16,11.98,10.75,1.06.96,2.25,1.2,3.38.29,1.18-.95.9-2.05-.14-3.01-1.46-1.34-3.04-2.58-4.37-4.01-.6-.65-1.25-1.91-.93-2.44.41-.68,1.76-1.24,2.72-1.26,4.78-.13,9.56-.06,14.34-.06Zm5.87,20.45h0c-4.99-.01-9.97-.02-14.96,0-1.4,0-2.35.6-2.45,1.9-.11,1.34.82,1.97,2.18,2.15.66.08,1.34.07,2.02.06,9.16-.04,18.32-.13,27.48-.09.99,0,2.32.52,2.87,1.2.81,1.01-.09,2.01-1.01,2.81-1.41,1.21-2.76,2.48-4.15,3.71-1.11.98-1.54,2.05-.27,3.12,1.17,1,2.35.62,3.38-.29,4.06-3.62,8.1-7.25,12.15-10.88,1.21-1.09,1.25-2.19,0-3.31-4.04-3.63-8.07-7.28-12.11-10.91-1.11-1-2.38-1.22-3.56-.2-1.19,1.04-.63,2.1.35,3,1.46,1.34,3.05,2.57,4.37,4.01.59.65,1.13,1.86.83,2.49-.29.62-1.66,1.15-2.57,1.17-4.85.11-9.7.05-14.55.05Zm79.85,12.92c-5.8-5.19-11.66-10.44-17.44-15.61,0,4.18-.06,8.63.04,13.08.03,1.49,1.07,2.5,2.85,2.51,4.97.04,9.95.01,14.55.01ZM73.15,7.32c0,4.44-.08,8.89.04,13.33.05,1.83,1.66,2.3,3.44,2.3,4.3,0,8.61,0,12.91,0,.36,0,.72-.11,1.05-.16-5.83-5.17-11.57-10.27-17.43-15.47Zm39.32,47.92h16.18c.08-.13.15-.26.23-.4-1.08-.69-2.1-1.9-3.24-1.99-3.4-.26-6.84-.11-10.27-.05-1.6.03-2.55.86-2.91,2.43Z"/>
  <path d="m56.51,100.25c6.19,0,12.38,0,18.57,0,.67,0,1.43-.11,1.99.13.58.26,1.29.86,1.33,1.35.05.59-.41,1.34-.91,1.8-.34.32-1.13.34-1.71.34-12.85.02-25.7.01-38.55.02-1.48,0-2.84-.31-2.8-1.9.04-1.64,1.48-1.75,2.92-1.74,6.39.01,12.78,0,19.17,0Z"/>
  <path d="m56.27,38.59c-6.12,0-12.24,0-18.36,0-.6,0-1.35.15-1.78-.11-.69-.42-1.62-1.11-1.62-1.69,0-.59.91-1.29,1.59-1.72.42-.26,1.17-.12,1.78-.12,12.38,0,24.75,0,37.13,0,.47,0,.94-.01,1.41.03,1.21.1,2.07.6,2.08,1.79,0,1.19-.82,1.71-2.05,1.8-.54.04-1.08.02-1.61.02-6.19,0-12.38,0-18.57,0Z"/>
  <path d="m56.39,64.71c-6.19,0-12.38,0-18.57,0-.73,0-1.6.08-2.16-.24-.58-.33-1.21-1.09-1.19-1.64.02-.55.71-1.21,1.3-1.58.43-.27,1.17-.18,1.77-.18,12.58,0,25.16,0,37.74,0,.6,0,1.33-.1,1.77.16.6.35,1.36,1.02,1.34,1.52-.02.61-.67,1.36-1.28,1.75-.46.3-1.29.19-1.96.19-6.26.01-12.51,0-18.77,0Z"/>
  <path d="m56.45,74.14c6.19,0,12.38,0,18.57,0,.6,0,1.33-.15,1.79.09.67.35,1.59,1.01,1.58,1.52-.02.64-.73,1.44-1.4,1.85-.53.32-1.43.18-2.17.18-12.24,0-24.49,0-36.73,0-.2,0-.4,0-.61,0-1.5,0-3.05-.12-3.06-1.85,0-1.77,1.58-1.8,3.06-1.8,6.32,0,12.65,0,18.97,0Z"/>
  <path d="m56.48,87.18c6.19,0,12.38,0,18.57,0,.6,0,1.33-.14,1.78.11.66.36,1.58,1.03,1.56,1.54-.03.64-.76,1.41-1.42,1.84-.45.3-1.3.15-1.97.15-12.38,0-24.76,0-37.13,0-.54,0-1.23.16-1.58-.08-.73-.48-1.76-1.17-1.76-1.78,0-.58,1.03-1.42,1.81-1.68.89-.3,1.99-.1,3-.1,5.72,0,11.44,0,17.15,0Z"/>
  <path d="m56.39,51.67c-6.12,0-12.24,0-18.36,0-.73,0-1.61.11-2.17-.2-.64-.35-1.39-1.12-1.37-1.69.02-.57.86-1.19,1.48-1.63.3-.22.91-.12,1.38-.12,12.71,0,25.43,0,38.14,0,.53,0,1.2-.09,1.57.15.59.38,1.36,1.02,1.34,1.53-.02.61-.66,1.39-1.28,1.75-.54.32-1.43.21-2.16.21-6.19.01-12.38,0-18.56,0Z"/>
  <path d="m26.17,76.14c.91,1.27,3.29,2.25,1.4,3.96-1.98,1.8-3.06-.59-4.52-1.24-1.46.66-2.55,3.04-4.53,1.23-1.89-1.72.52-2.68,1.42-3.95-.54-1.34-3.49-2.31-1.35-4.15,1.93-1.65,2.99.54,4.43,1.3,1.44-.55,2.47-3.03,4.48-1.31,2.14,1.82-.76,2.82-1.33,4.16Z"/>
  <path d="m23.06,104.92c-1.51.78-2.63,3.08-4.59,1.21-1.82-1.73.63-2.67,1.49-3.94-.7-1.33-3.54-2.35-1.33-4.16,1.92-1.58,2.99.61,4.35,1.36,1.49-.64,2.56-3.06,4.55-1.29,2,1.77-.66,2.75-1.38,4.06.77,1.3,3.38,2.3,1.35,4.06-1.93,1.67-2.99-.51-4.46-1.31Z"/>
  <path d="m26.15,89.12c.87,1.31,3.3,2.27,1.46,3.99-1.96,1.82-3.09-.45-4.5-1.23-1.49.65-2.56,3.05-4.55,1.29-2.02-1.78.66-2.74,1.39-4.05-.73-1.31-3.4-2.27-1.38-4.05,1.92-1.69,3,.45,4.41,1.27,1.53-.52,2.7-3.24,4.76-1.08,1.6,1.69-.76,2.58-1.59,3.86Z"/>
  <path d="m22.67,62.04c1.3-1.27,2.45-2.45,3.66-3.57.93-.85,2.04-1.02,3.02-.14.98.89.76,1.85-.19,2.7-1.71,1.53-3.42,3.07-5.16,4.58-1.05.91-2.13.92-3.19-.01-.86-.76-1.71-1.53-2.57-2.3-.93-.83-1.28-1.78-.28-2.7,1.04-.96,2.17-.73,3.18.17.38.34.78.65,1.52,1.26Z"/>
  <path d="m22.68,48.99c1.3-1.28,2.45-2.45,3.67-3.57.93-.86,2.04-1.02,3.02-.13.98.89.75,1.86-.2,2.7-1.71,1.53-3.42,3.06-5.16,4.58-1.05.92-2.14.91-3.19-.01-.86-.76-1.72-1.53-2.57-2.3-.93-.83-1.27-1.78-.27-2.7,1.05-.96,2.17-.72,3.17.17.38.34.78.65,1.53,1.25Z"/>
  <path d="m22.69,35.95c1.29-1.27,2.44-2.45,3.65-3.58.92-.86,2.02-1.05,3.01-.15.99.89.78,1.85-.16,2.7-1.71,1.54-3.42,3.07-5.15,4.58-1.04.91-2.13.94-3.19,0-.86-.76-1.71-1.53-2.57-2.3-.93-.83-1.29-1.77-.3-2.7,1.04-.97,2.16-.75,3.17.15.38.33.78.65,1.55,1.28Z"/>
  <path d="m164.77,100.73h-18.37c-.4,0-.81,0-1.21,0-1.41,0-2.43-.51-2.4-1.87.03-1.24.99-1.76,2.32-1.76,13.12,0,26.25,0,39.37,0,1.4,0,2.42.49,2.38,1.87-.04,1.4-1.13,1.77-2.5,1.76-6.53,0-13.06,0-19.58,0Z"/>
  <path d="m164.92,87.68c-6.39,0-12.79-.01-19.18,0-1.46,0-2.89-.15-2.93-1.75-.05-1.73,1.42-1.9,2.97-1.9,12.72.01,25.44.01,38.16,0,1.44,0,2.87.1,2.92,1.75.05,1.77-1.42,1.9-2.95,1.9-6.33-.02-12.65,0-18.98,0Z"/>
  <path d="m164.58,113.77c-6.26,0-12.52-.01-18.78,0-1.53,0-3.05-.12-3-1.86.05-1.72,1.6-1.79,3.1-1.79,12.65.01,25.3,0,37.95,0,1.52,0,3,.12,2.98,1.89-.02,1.66-1.44,1.76-2.89,1.76-6.46-.02-12.92,0-19.38,0Z"/>
  <path d="m164.89,126.82c-6.39,0-12.79-.01-19.18,0-1.46,0-2.89-.14-2.91-1.76-.02-1.72,1.46-1.89,3-1.89,12.72.01,25.44.01,38.16,0,1.45,0,2.86.15,2.89,1.79.04,1.79-1.47,1.86-2.98,1.86-6.33-.01-12.65,0-18.98,0Z"/>
  <path d="m164.58,139.86c-6.26,0-12.52-.01-18.77,0-1.52,0-3.05-.08-3-1.84.05-1.71,1.59-1.81,3.1-1.81,12.58,0,25.17,0,37.75,0,1.54,0,3.2,0,3.19,1.89-.01,1.8-1.61,1.75-3.08,1.75-6.39,0-12.79,0-19.18,0Z"/>
  <path d="m164.57,152.91c-6.12,0-12.25,0-18.37,0-.54,0-1.21.16-1.59-.06-.71-.41-1.69-1.03-1.73-1.61-.04-.6.8-1.39,1.47-1.82.46-.29,1.3-.14,1.97-.14,12.31,0,24.63,0,36.94,0,.54,0,1.08-.03,1.61.03,1.22.13,2.03.7,1.99,1.87-.04,1.17-.85,1.71-2.11,1.73-1.35.02-2.69.01-4.04.01-5.38,0-10.77,0-16.15,0Z"/>
  <path d="m134.52,125.37c.95,1.31,3.31,2.3,1.42,4-1.91,1.71-3-.41-4.42-1.24-1.53.48-2.7,3.23-4.76,1.08-1.63-1.7.72-2.58,1.56-3.83-.57-1.33-3.5-2.31-1.34-4.14,1.94-1.64,2.98.57,4.43,1.32,1.46-.61,2.59-3.14,4.61-1.18,1.79,1.73-.71,2.67-1.5,3.99Z"/>
  <path d="m134.52,138.35c.85,1.35,3.42,2.36,1.36,4.11-1.93,1.64-2.98-.57-4.44-1.32-1.45.62-2.59,3.14-4.61,1.18-1.79-1.74.73-2.66,1.49-3.94-.67-1.3-3.39-2.25-1.42-4.04,1.99-1.8,3.07.58,4.53,1.24,1.46-.65,2.54-3.04,4.52-1.24,1.88,1.71-.5,2.69-1.43,4Z"/>
  <path d="m131.42,148.62c1.46-.64,2.53-3.04,4.52-1.25,1.89,1.71-.47,2.69-1.39,3.96.56,1.34,3.46,2.34,1.33,4.16-1.93,1.65-2.99-.55-4.43-1.31-1.46.59-2.59,3.14-4.62,1.19-1.8-1.74.71-2.66,1.49-3.94-.66-1.3-3.39-2.24-1.43-4.03,1.99-1.81,3.07.56,4.53,1.23Z"/>
  <path d="m131.06,85.03c1.21-1.2,2.32-2.33,3.47-3.43.94-.89,2.07-1.27,3.17-.32,1.1.95.75,1.96-.24,2.84-1.62,1.44-3.25,2.88-4.87,4.32-.14.13-.3.34-.45.34-.97-.03-2.38.24-2.84-.23-1.31-1.34-4.1-2.04-3.26-4.48.42-1.21,1.73-1.46,2.98-.68.6.37,1.1.88,2.03,1.65Z"/>
  <path d="m131.1,98.07c1.24-1.23,2.38-2.42,3.58-3.55.91-.85,2.01-1.07,3.02-.19,1.01.88.81,1.86-.11,2.71-1.7,1.55-3.43,3.05-5.15,4.58-.1.08-.2.16-.31.23-1.13.72-2.26.59-3.03-.33-1.16-1.39-3.9-2.03-3.05-4.4.39-1.1,1.6-1.46,2.82-.77.67.38,1.22.93,2.25,1.73Z"/>
  <path d="m131.08,111.11c1.29-1.27,2.44-2.46,3.65-3.58.92-.85,2.03-1.02,3.01-.11.98.91.73,1.87-.2,2.71-1.66,1.5-3.34,2.97-5.01,4.45-.1.08-.2.16-.3.24-1.07.75-2.25.76-3.04-.17-1.21-1.42-4.05-2.07-3.13-4.54.42-1.11,1.65-1.4,2.84-.69.66.39,1.21.93,2.17,1.69Z"/>
</svg>