<?xml version="1.0" encoding="UTF-8"?>
<svg id="Capa_1" data-name="Capa 1" xmlns="http://www.w3.org/2000/svg" viewBox="0 0 151.41 166.79">
  <path d="m109.55,166.61c-26.07,0-51.72.51-77.32-.17-17.63-.47-31.8-14.79-32-31.43C-.1,107.64-.09,80.26.37,52.9c.07-3.96,2.43-8.76,5.52-11.65,13.47-12.6,27.64-24.59,41.47-36.89C50.83,1.28,54.78-.03,59.65,0c18.44.11,36.88-.01,55.33.06,20.29.07,36.05,13.42,36.24,31.66.37,34.44.12,68.89.05,103.34,0,2.43-.68,4.86-.96,6.72-3.17-2.44-6.62-4.6-9.3-7.36-1.26-1.29-1.45-3.73-1.45-5.65-.08-31.3-.04-62.6-.07-93.9,0-15.83-9.28-24.22-26.87-24.27-16.86-.04-33.72.16-50.58-.08-4.99-.07-6.54,1.51-6.13,5.72.31,3.12.09,6.29.05,9.43-.15,13.68-11.09,23.62-26.49,24.14-5.59.19-11.17.5-17.22.78-.13,2.19-.34,4.02-.34,5.85-.02,25.01-.04,50.02,0,75.03.03,16.4,9.21,24.68,27.49,24.75,17.74.06,35.52.63,53.2-.22,9.38-.45,13.76,3.19,16.94,10.63Z"/>
  <path d="m26.08,100.84c.31-20.81,16.26-39.2,37.61-43.04,24.3-4.37,47.58,6.01,56.14,25.36,6.06,13.69,5.92,27.26-2.98,40.08-2.26,3.25-1.77,5.09,1.67,7.25,5.88,3.7,11.43,7.81,17.13,11.74,5.08,3.51,7.19,7.96,5.49,13.66-1.47,4.96-5.28,7.82-10.68,8.61-6.15.9-10.94-1.5-14.3-6.12-4.01-5.53-8.01-11.07-11.88-16.69-1.84-2.67-3.44-3.49-7.13-1.87-29.09,12.76-62.04-1.1-69.76-29.22-.87-3.16-.89-6.51-1.3-9.78Zm87.09-9.79c-1.05-2.5-1.67-4.66-2.81-6.57-8.27-13.84-24.39-21.12-41.78-18.86-11.9,1.54-28.94,11.18-32.42,28.45-3.31,16.44,7.27,34.03,24.88,39.76,26.58,8.64,53.09-8.17,53.19-33.57.01-2.76,1.49-5.49,2.14-8.27.33-1.41.33-2.88.48-4.33-.26-.02-.52-.05-.78-.07-.22,1.03-.44,2.06-.85,3.96-.45-1.73-.65-2.48-.93-3.57-.4,1.09-.69,1.87-1.12,3.07Z"/>
  <path d="m93.02,104.43c-1.78,1.4-3.05,2.8-4.68,3.57-1.12.52-2.74.17-4.14.21.2-1.12-.04-2.75.69-3.26,4.32-3.02,3.93-5.64-.05-8.63-.71-.53-.2-2.37-.26-3.6,1.34.22,3.24,0,3.94.73,3,3.12,5.62,3.76,8.98.33.75-.76,3-.34,4.56-.46-.43,1.21-.44,2.86-1.35,3.56-3.56,2.73-3.31,4.99.08,7.68.89.71.65,2.56.93,3.89-1.54-.29-3.23-.32-4.58-.94-1.46-.67-2.6-1.9-4.11-3.07Z"/>
  <path d="m56.65,103.21c2.54-2.14,4.69-4.49,7.39-6.09,2.58-1.53,4.49-7.02,7.87-3.91,3.79,3.48-2.69,5-4.55,7.32-2.01,2.51-5.06,4.33-7.47,6.61-2.28,2.15-4.3,2.44-6.6.1-1.39-1.42-3.16-2.56-4.34-4.08-.63-.81-.36-2.17-.5-3.29,1.28.01,2.76-.34,3.79.12,1.5.67,2.68,1.92,4.4,3.23Z"/>
</svg>