<?xml version="1.0" encoding="UTF-8"?>
<svg id="Capa_1" data-name="Capa 1" xmlns="http://www.w3.org/2000/svg" viewBox="0 0 51 45.88">
  <defs>
    <style>
      .cls-1 {
        fill: none;
        stroke: #1d1d1b;
        stroke-miterlimit: 10;
        stroke-width: 2px;
      }

      .cls-2 {
        fill: #1d1d1b;
      }
    </style>
  </defs>
  <rect class="cls-1" x="1" y="1" width="49" height="43.88" rx="12.96" ry="12.96"/>
  <g>
    <path class="cls-2" d="m13.94,10.13h20.85s.09.04.13.05c2.26.34,3.85,1.99,3.85,4.03,0,7.57,0,15.13,0,22.7,0,.36-.13.65-.5.83-.36.17-.7.1-1.02-.1-.62-.37-1.24-.73-1.85-1.12-.18-.11-.31-.13-.5,0-.6.38-1.22.73-1.83,1.1-.51.3-.79.3-1.3,0-.61-.36-1.23-.72-1.83-1.1-.18-.11-.3-.1-.47,0-.62.38-1.26.75-1.88,1.13-.41.25-.8.25-1.2,0-.63-.39-1.27-.76-1.9-1.15-.16-.1-.27-.09-.42,0-.63.39-1.27.76-1.91,1.14-.41.25-.8.25-1.2,0-.63-.39-1.27-.76-1.9-1.15-.16-.1-.27-.1-.42,0-.65.4-1.3.79-1.96,1.17-.41.24-.81.22-1.14-.03-.26-.2-.32-.46-.32-.75,0-3.92,0-7.85,0-11.77v-.32c-.93,0-1.8,0-2.68,0-.55,0-.95-.34-.95-.83,0-3.82-.01-7.65,0-11.47,0-.95.55-1.66,1.5-2.1.26-.12.56-.18.85-.27Zm3.01,1.62c.02.52.07,1.01.07,1.49,0,7.3,0,14.61,0,21.91v.35c.43-.26.82-.47,1.18-.71.42-.27.83-.27,1.25,0,.62.38,1.26.74,1.88,1.13.17.11.29.09.45,0,.6-.37,1.22-.73,1.83-1.1.52-.31.79-.31,1.33,0,.62.37,1.24.74,1.86,1.11.15.09.25.09.4,0,.63-.39,1.28-.76,1.9-1.15.42-.26.81-.26,1.23,0,.62.38,1.26.75,1.88,1.13.17.1.28.11.45,0,.56-.35,1.14-.68,1.7-1.02.7-.42.88-.42,1.58,0,.33.2.66.39,1.03.61v-.33c0-6.93,0-13.87,0-20.8,0-1.6-1.14-2.62-2.92-2.62-5.6,0-11.2,0-16.8,0h-.29Zm-1.74,11.41v-.22c0-3.42,0-6.85,0-10.27,0-.05,0-.11,0-.16-.04-.39-.39-.71-.82-.75-.42-.04-.82.2-.94.57-.04.11-.05.23-.05.35,0,3.42,0,6.83,0,10.25,0,.08.01.16.02.24h1.79Z"/>
    <path class="cls-2" d="m26.09,23.52c.12-.33-.06-.56-.49-.7-.2-.07-.37-.22-.52-.36-.34-.3-.36-.78-.05-1.1.31-.32.83-.37,1.23-.11.06.04.11.08.16.12.34.23.73.25,1.07.05.32-.19.48-.55.38-.87-.11-.36-.43-.6-.86-.61-.97-.03-1.75-.38-2.29-1.11-.91-1.23-.38-2.9,1.12-3.53.2-.08.26-.18.25-.36-.01-.23-.01-.47,0-.7.02-.45.41-.79.89-.8.5,0,.9.34.92.8.01.24.01.49,0,.73,0,.16.05.25.22.32.27.12.52.27.75.45.39.31.42.8.09,1.14-.32.34-.87.38-1.27.08-.27-.2-.56-.33-.91-.24-.44.1-.73.48-.68.87.05.41.42.71.91.72.88.02,1.6.33,2.14.95,1.06,1.23.59,3-.97,3.67-.22.09-.29.2-.27.4.02.22.01.45,0,.68-.02.46-.43.8-.92.8-.48,0-.87-.35-.89-.8,0-.14,0-.27,0-.48Z"/>
    <path class="cls-2" d="m28.8,28.04c1.79,0,3.58,0,5.37,0,.72,0,1.18.59.89,1.14-.17.34-.49.49-.9.48-1.14,0-2.27,0-3.41,0-2.43,0-4.87,0-7.3,0-.73,0-1.19-.57-.92-1.13.17-.35.5-.5.92-.5,1.78,0,3.56,0,5.34,0Z"/>
    <path class="cls-2" d="m28.8,31.29c1.79,0,3.58,0,5.37,0,.72,0,1.18.59.89,1.14-.18.34-.49.48-.9.48-1.46,0-2.92,0-4.38,0-2.11,0-4.23,0-6.34,0-.73,0-1.19-.58-.91-1.13.18-.35.5-.49.92-.49,1.78,0,3.56,0,5.34,0Z"/>
    <path class="cls-2" d="m19.74,28.05c.49,0,.9.36.91.8,0,.45-.42.83-.92.82-.49,0-.9-.38-.89-.81,0-.44.41-.81.9-.81Z"/>
    <path class="cls-2" d="m20.64,32.1c0,.44-.41.81-.89.81-.5,0-.92-.37-.92-.82,0-.44.42-.8.91-.8.49,0,.9.37.9.81Z"/>
  </g>
</svg>