<?xml version="1.0" encoding="UTF-8"?>
<svg id="Capa_1" data-name="Capa 1" xmlns="http://www.w3.org/2000/svg" viewBox="0 0 164.67 163.56">
  <path d="m12.45,163.56c-1.23-.37-2.51-.63-3.67-1.12-5.42-2.29-8.32-6.15-8.76-11.5-.03-.42-.02-.85-.02-1.28C0,104.41,0,59.16,0,13.91,0,7.29,4.02,2.2,10.62.56,12.03.2,13.54.03,15.01.03,43.78,0,72.55.02,101.31,0c3.52,0,6.5,1.05,8.98,3.28,9.08,8.13,18.15,16.26,27.24,24.39,2.48,2.22,3.7,4.89,3.68,8.03-.02,5.86,0,11.71-.01,17.57,0,1.94-1.37,3.17-3.12,2.82-1.67-.33-2.24-1.38-2.23-2.84.03-5.32,0-10.65,0-15.97,0-2.91,0-2.9-3.34-2.92-5.35-.02-10.71.12-16.04-.13-7.38-.34-13.08-5.37-13.48-12-.31-5.1-.12-10.22-.15-15.33,0-.63,0-1.25,0-2.11h-2.09c-28.47,0-56.94,0-85.42,0-6.14,0-9.98,3.46-9.98,9,0,45.3,0,90.6,0,135.9,0,5.63,3.82,9.06,10.09,9.06,36.79,0,73.59,0,110.38,0,6.18,0,10.02-3.43,10.03-8.95,0-14.48,0-28.96,0-43.44,0-.53-.05-1.07.03-1.6.21-1.36,1.17-2.13,2.65-2.13,1.4,0,2.33.75,2.6,2.01.11.51.06,1.06.06,1.59,0,14.32,0,28.64,0,42.96,0,7.68-3.88,12.19-12.19,14.17-.11.03-.19.12-.29.18H12.45ZM108.19,8.64c0,4.06-.03,8.04,0,12.02.05,5.47,3.78,8.84,9.92,8.91,4.1.05,8.2.01,12.3,0,.39,0,.78-.06,1.06-.09-7.73-6.92-15.44-13.83-23.28-20.85Z"/>
  <path d="m93.13,122.6c2.46,1.74,4.73,3.35,6.82,4.84,19.24-13.91,32.59-32,46.32-50.03-2.97-2.11-5.96-4.24-9.04-6.44-4.86,4.88-9.58,9.66-14.35,14.4-7.21,7.16-14.34,14.37-19.9,22.69-.93,1.38-2.49,1.73-3.81,1.03-1.36-.72-1.77-2.24-.65-3.61,4.62-5.66,8.99-11.53,14.08-16.84,11.24-11.7,22.85-23.11,34.33-34.63,3.8-3.81,9.68-4.39,13.92-1.4,4.28,3.01,5.06,8.2,1.84,12.42-1.88,2.46-3.82,4.88-5.8,7.4,1.42,1.02,2.83,2,4.19,3.02,3.35,2.5,3.82,5.99,1.17,9.03-3.95,4.53-7.96,9.02-11.96,13.51-1.63,1.82-3.92,1.76-4.88-.09-.6-1.15-.05-2.04.73-2.91,3.81-4.29,7.61-8.59,11.41-12.89,1.48-1.68,1.43-2.05-.42-3.36-1.07-.76-2.15-1.51-3.32-2.34-.41.5-.81.96-1.18,1.43-6.23,7.91-12.49,15.81-18.68,23.75-5.29,6.79-11.19,13.1-17.83,18.86-3.76,3.26-7.42,6.61-11.22,9.83-1,.84-2.38,1.32-3.55,2-.46.27-.96.6-1.21,1.02-1.13,1.93-1.64,3.96-1.21,6.16.37,1.91-.35,3.11-2.37,3.75-5.42,1.73-10.85,3.44-16.31,5.08-2.79.84-5.28-.85-5.03-3.5.5-5.25,1.15-10.48,1.83-15.71.2-1.53,1.34-2.34,3.1-2.64,1.73-.29,3.47-.72,5.06-1.36,1.56-.63,2.37-1.71,2.91-3.42.74-2.37,2.5-4.52,4.08-6.62.73-.97,2.14-.89,3.22-.17,1.13.75,1.52,1.81.83,2.96-.96,1.58-2.03,3.11-3.14,4.78Zm-7.21,18.53c.05.1.1.2.14.3,2.22-.7,4.45-1.37,6.65-2.12.32-.11.62-.57.7-.9.58-2.63,1.09-5.26,1.71-8.27-1.02-.73-2.53-1.8-3.96-2.82-1.42.83-2.6,1.67-3.92,2.24-1.37.6-2.9.91-4.32,1.43-.35.13-.76.53-.8.85-.29,2.07-.49,4.16-.78,6.73,1.58-1.77,2.82-3.18,4.08-4.57,1.23-1.36,2.75-1.64,4.02-.77,1.31.9,1.43,2.24.24,3.65-1.22,1.44-2.49,2.83-3.74,4.25Zm69.36-74.98c1.21-1.57,2.43-3,3.45-4.54,1.16-1.76.62-3.92-1.1-5.17-1.7-1.24-4.28-1.3-5.89.06-1.49,1.25-2.79,2.69-4.26,4.12,2.67,1.9,5.17,3.68,7.8,5.54Zm-5.82,7.39c.99-1.27,1.82-2.34,2.71-3.48-2.81-2-5.5-3.9-8.24-5.84-1.06,1.07-2.04,2.05-3.14,3.15,2.89,2.06,5.7,4.06,8.67,6.18Z"/>
  <path d="m29.94,140.91c3.55.36,6.6.3,9.38-.88,3.62-1.53,6.81-1.15,10.02.87,3.06,1.92,6.63,1.78,10.14,1.46,2.14-.2,3.41.35,3.7,1.82.3,1.5-.64,2.59-2.73,2.86-5.19.66-10.21.33-14.67-2.47-1.18-.74-2.27-.92-3.63-.36-4.06,1.65-8.36,1.95-12.73,1.46-1.27-.14-2.68-.39-3.69-1.02-1.53-.96-2.76-.72-4.21-.02-1.03.51-2.17.87-3.29,1.21-1.55.46-2.96-.14-3.48-1.41-.49-1.19.09-2.39,1.54-3,1.28-.54,2.6-1,4.04-1.56-1.11-2.72-1.69-5.43-1.16-8.28.8-4.25,3.75-7.24,7.9-7.84,3.71-.53,9.32,1.95,11.06,4.94,1.33,2.27,1.01,4.55-.76,6.42-1.63,1.72-3.68,3.12-5.57,4.64-.43.34-.96.59-1.89,1.15Zm-4.59-3.05c2.11-1.32,4.13-2.41,5.92-3.75,3.32-2.47,2.96-3.88-1.15-5.25-2.08-.69-3.54-.42-4.52,1.02-1.7,2.49-1.57,5.07-.25,7.98Z"/>
  <path d="m34.62,14.04c4.4,0,8.8-.01,13.2,0,3.49.01,5.24,1.59,5.27,4.72.02,2.66.03,5.32,0,7.99-.04,2.92-1.85,4.55-5.1,4.56-8.98.02-17.95.02-26.93,0-3.26,0-5.03-1.62-5.05-4.57-.02-2.77-.03-5.54,0-8.31.03-2.75,1.81-4.36,4.89-4.38,4.58-.03,9.15,0,13.73,0Zm13.07,4.9h-26.21v7.45h26.21v-7.45Z"/>
  <path d="m54.91,48.19c11.53,0,23.05,0,34.58,0,.59,0,1.19-.03,1.78.04,1.37.14,2.16.89,2.3,2.07.14,1.19-.46,2.09-1.76,2.46-.66.19-1.4.21-2.1.21-23.29,0-46.58,0-69.87,0-.36,0-.72.01-1.07-.01-1.78-.14-2.85-1.13-2.77-2.55.08-1.34,1.15-2.2,2.9-2.22,3.39-.03,6.77-.01,10.16-.01h25.84Z"/>
  <path d="m54.79,62.24c11.58,0,23.17,0,34.75,0,.59,0,1.19-.03,1.78.04,1.37.16,2.33.96,2.19,2.1-.11.84-.86,1.78-1.63,2.35-.53.39-1.59.28-2.4.28-23.11.01-46.22.01-69.33,0-.82,0-1.69-.02-2.45-.25-1.29-.38-2.03-1.4-1.59-2.49.32-.8,1.33-1.45,2.18-1.97.41-.25,1.16-.08,1.75-.08,11.58,0,23.17,0,34.75,0Z"/>
  <path d="m54.9,76.3c11.53,0,23.05,0,34.58,0,.59,0,1.19-.03,1.78.03,1.37.13,2.16.87,2.31,2.06.15,1.19-.45,2.1-1.74,2.47-.72.2-1.52.22-2.28.22-23.17.01-46.34,0-69.51,0-.53,0-1.08.02-1.6-.05-1.56-.21-2.5-1.2-2.43-2.5.07-1.29,1.1-2.2,2.71-2.22,3.21-.04,6.42-.02,9.62-.02,8.85,0,17.7,0,26.56,0Z"/>
  <path d="m34.06,90.35c4.86,0,9.73,0,14.59,0,2.14,0,3.33.83,3.37,2.29.05,1.53-1.2,2.49-3.39,2.49-9.79.01-19.58.02-29.37,0-2.41,0-3.84-1.51-3.13-3.2.51-1.2,1.58-1.6,2.97-1.59,4.98.03,9.97.01,14.95,0Z"/>
</svg>