<?xml version="1.0" encoding="UTF-8"?>
<svg id="Capa_1" data-name="Capa 1" xmlns="http://www.w3.org/2000/svg" viewBox="0 0 144.04 82.86">
  <defs>
    <style>
      .cls-1 {
        fill: #0c356a;
      }
    </style>
  </defs>
  <path class="cls-1" d="m0,49.88c.68-2.6,1.08-5.28,2.08-7.78,4.82-12,17.02-19.79,31.25-20.13.56-.01,1.12,0,1.57,0C40.95,7.67,52.1-.57,69.35.03c16.35.57,26.56,9.04,31.56,22.88,1.79-.25,3.65-.63,5.54-.76,13.48-.93,24.35,3.52,31.7,13.61,7.78,10.69,7.83,21.96.3,32.82-6.53,9.42-16.45,14.13-28.81,14.19-25.14.13-50.27.09-75.41.02-15.2-.05-27.78-8.27-32.56-21.17-.8-2.17-1.13-4.48-1.67-6.72v-5.03Zm56.73,28.68v-27.28c-2.92,0-5.76.04-8.6-.02-.92-.02-1.83-.33-2.75-.51.5-.72.86-1.57,1.51-2.15,7.14-6.29,14.33-12.54,21.51-18.79,1.64-1.43,2.4-1.42,3.98.03,6.95,6.4,13.9,12.81,20.85,19.21.26.24.53.48.75.75,1.03,1.27.74,1.9-.99,2.03-.74.06-1.5.03-2.25.03-2.41,0-4.83,0-7.26,0v26.71c.39.02.71.06,1.03.06,8.38,0,16.76.03,25.14-.02,1.91-.01,3.84-.15,5.72-.47,15.49-2.65,25.73-15.66,23.43-29.69-2.35-14.29-17.37-24.27-33.29-22.01-2.79.4-5.5,1.22-8.26,1.85-2.55-13.74-11.01-22.99-27.06-24.02-17.18-1.1-27.29,7.49-31.71,22.02-1.01-.05-2.08-.09-3.15-.14-4.57-.25-8.97.46-13.12,2.15C6.58,34.7.16,50.6,7.93,64.31c4.84,8.55,12.93,13.48,23.61,14.14,8.11.51,16.28.15,24.43.17.22,0,.45-.04.77-.07Z"/>
</svg>