<?xml version="1.0" encoding="UTF-8"?>
<svg id="Capa_1" data-name="Capa 1" xmlns="http://www.w3.org/2000/svg" viewBox="0 0 50 44.88">
  <defs>
    <style>
      .cls-1 {
        fill: none;
        stroke: #1d1d1b;
        stroke-miterlimit: 10;
      }

      .cls-2 {
        fill: #1d1d1b;
      }
    </style>
  </defs>
  <rect class="cls-1" x=".5" y=".5" width="49" height="43.88" rx="12.96" ry="12.96"/>
  <path class="cls-2" d="m23.1,8.79c.67.22.89.66.88,1.29-.02,3.22,0,6.43,0,9.65,0,.8-.45,1.21-1.34,1.21-3.57,0-7.15-.01-10.72,0-.71,0-1.23-.19-1.5-.79v-.94c.02-.08.04-.17.05-.25.07-.44.12-.88.22-1.32.58-2.46,1.96-4.51,4.08-6.15,1.66-1.28,3.57-2.13,5.73-2.49.51-.09,1.03-.14,1.55-.21h1.05Zm-1.37,2.07c-5.21.5-8.7,4.41-8.99,8.06h8.99v-8.06Z"/>
  <path class="cls-2" d="m25.68,22.46v-.34c0-3.4,0-6.79,0-10.19,0-.92.53-1.39,1.56-1.36,3.65.12,6.7,1.43,9.2,3.79,2.21,2.08,3.52,4.58,3.83,7.44.39,3.5-.7,6.63-3.22,9.33-2.1,2.24-4.78,3.66-7.99,4.23-6.05,1.06-12.35-1.52-15.2-6.45-.94-1.62-1.41-3.35-1.45-5.18-.01-.78.53-1.28,1.41-1.28,3.82,0,7.64,0,11.46,0h.39Zm-10.59,2.31c0,.06-.01.08-.01.09,0,.05.01.1.02.16.58,3.09,2.47,5.35,5.46,6.9,1.64.85,3.42,1.27,5.31,1.35,2.14.09,4.14-.33,6.01-1.26,2.19-1.09,3.81-2.66,4.86-4.7,1.01-1.97,1.27-4.03.83-6.16-.36-1.73-1.16-3.28-2.4-4.65-1.56-1.72-3.54-2.87-5.94-3.41-.31-.07-.62-.1-.96-.15v.35c0,3.37,0,6.74,0,10.11,0,.16,0,.32-.04.47-.15.57-.66.89-1.4.89-3.79,0-7.58,0-11.37,0h-.36Z"/>
</svg>