<?xml version="1.0" encoding="UTF-8"?>
<svg id="Capa_1" data-name="Capa 1" xmlns="http://www.w3.org/2000/svg" viewBox="0 0 219.37 196.44">
  <path d="m170.53,0c4.06.98,7.68,2.62,9.47,6.22.88,1.76,1.54,3.78,1.56,5.69.15,10.93.07,21.87.07,32.8,0,1.94-.67,3.57-2.83,4.31-2.85.97-5.61-.82-5.71-3.74-.1-2.94-.03-5.88-.03-8.82,0-7.87,0-15.73,0-23.6,0-3.84-1.51-5.17-5.83-5.17-50.98,0-101.96,0-152.94,0-4.21,0-5.72,1.33-5.72,5.06,0,56.97,0,113.95,0,170.93,0,3.75,1.49,5.1,5.68,5.1,51.05,0,102.11,0,153.16,0,4.13,0,5.65-1.39,5.66-5.13.01-5.05-.01-10.1,0-15.15.01-2.8,1.69-4.59,4.24-4.6,2.54,0,4.29,1.79,4.31,4.57.04,5.18.03,10.36,0,15.54-.04,7.62-5.43,12.44-13.97,12.45-26.92.02-53.84,0-80.76,0H16.22c-9.68,0-12.55-1.69-16.22-9.57V9.59C1.62,4.45,5.27,1.19,11.14,0h159.39Z"/>
  <path d="m107.15,102.09h-2.82c-22.78,0-45.56,0-68.34,0-4.68,0-6-1.18-6-5.35,0-6.08-.01-12.15,0-18.23.01-3.34,1.61-4.79,5.35-4.81,6.49-.03,12.99,0,19.8,0v-2.15c0-5.82-.02-11.64,0-17.46.01-3.58,1.56-4.93,5.61-4.94,7.78-.01,15.56,0,23.66,0v-2.11c0-6.59,0-13.17,0-19.76,0-3.58,1.57-4.97,5.61-4.98,8.93-.01,17.85-.02,26.78,0,3.89,0,5.45,1.4,5.47,4.88.03,5.82,0,11.64.01,17.46v2.2h15.46c2.64,0,5.28,0,7.93,0,4.47,0,5.95,1.31,5.96,5.26,0,5.82,0,11.64,0,17.46v1.83c4.54.66,8.88,1.03,13.07,1.96,17.53,3.9,31.61,18.11,34.15,34.12,1.41,8.86.06,17.31-4.45,25.31-.74,1.31-.63,2.05.55,3.09,6.73,5.91,13.39,11.88,20.02,17.89,5.46,4.95,5.84,11.56,1.04,16.35-4.51,4.49-12.19,5.17-17.37,1.28-3.11-2.33-5.88-5.03-8.77-7.59-4.26-3.78-8.56-7.53-12.69-11.42-1.36-1.27-2.34-1.42-4.13-.65-13.79,5.91-27.67,5.95-41.45,0-19.59-8.45-30.13-28.6-24.97-47.53.17-.61.3-1.23.52-2.11Zm83.78,11.97c.17-18.8-17.05-34.36-38.26-34.59-21.09-.23-38.59,15.27-38.74,34.33-.15,18.98,17.08,34.58,38.33,34.68,21.16.11,38.5-15.33,38.67-34.42ZM93.13,30.07v64.35c4.63,0,9.13-.18,13.6.07,2.93.16,4.91-.45,5.97-3,.29-.7.89-1.3,1.4-1.92,6.81-8.37,15.77-13.94,27.02-16.42,1.54-.34,2.04-.89,2.01-2.31-.11-4.47-.04-8.95-.04-13.42v-2.75h-20.79c0,2.1.01,4.07,0,6.04-.03,3.19.04,6.39-.16,9.58-.12,2.01-2.06,3.41-4.17,3.38-2.04-.03-3.72-1.35-4.06-3.3-.14-.82-.17-1.65-.17-2.48-.01-11.83,0-23.65,0-35.48v-2.32h-20.6Zm-8.89,64.25v-37.34h-20.42v37.34h20.42Zm98.59,52.34c6.65,5.95,13.44,12.05,20.26,18.12.49.44,1.16,1.03,1.75,1.03,1.48,0,3.3.11,4.33-.6.94-.64,1.41-2.3,1.37-3.5-.03-.91-1-1.94-1.82-2.68-6.36-5.77-12.78-11.48-19.19-17.21-.29-.25-.61-.47-.73-.56-2.02,1.82-3.92,3.54-5.97,5.39ZM38.69,81.48v12.81h16.26v-12.81h-16.26Z"/>
  <path d="m86.76,168.05c19.21,0,38.42,0,57.63.01.99,0,2.02.02,2.96.28,1.94.53,2.9,1.9,2.86,3.64-.04,1.65-.99,2.97-2.86,3.43-1.01.25-2.11.3-3.17.3-38.27.01-76.55.01-114.82.01-.21,0-.43,0-.64,0-3.47-.02-5.54-1.46-5.54-3.85,0-2.4,2.05-3.82,5.54-3.82,19.35,0,38.7,0,58.06,0Z"/>
  <path d="m50.54,146.8c-.31,4.41-2.99,7.79-7.83,9.94-.76.34-1.47,1.09-1.8,1.8-.77,1.66-1.97,2.65-3.99,2.68-2.11.03-3.38-.98-4.19-2.71-.33-.71-1.05-1.45-1.8-1.79-4.57-2.05-7.38-5.2-7.74-9.83-.23-2.98,2.53-4.98,5.53-4.13,1.84.52,2.79,1.79,2.93,3.43.22,2.51,2.86,4.47,6.69,3.75,1.99-.37,3.6-2.04,3.61-3.6,0-1.56-1.58-3.21-3.6-3.58-1.88-.35-3.83-.41-5.67-.87-5.35-1.33-9.12-5.47-9.5-10.23-.36-4.53,2.73-8.86,7.7-11.01.83-.36,1.57-1.15,2-1.9.85-1.46,2.1-2.32,3.86-2.35,1.85-.03,3.17.84,4.05,2.37.44.75,1.19,1.52,2.02,1.9,4.25,1.93,6.92,4.85,7.62,9.11.43,2.6-1,4.58-3.45,4.92-2.63.36-4.34-.86-5-3.6-.75-3.07-3.87-4.63-7.15-3.57-1.87.6-3.24,2.27-3.09,3.75.17,1.59,1.79,3.04,3.85,3.38,1.89.31,3.84.4,5.67.88,5.42,1.42,9.21,5.95,9.26,11.25Z"/>
  <path d="m77.56,125.09c4.14,0,8.28-.02,12.42,0,3.08.02,5.11,1.59,5.08,3.86-.03,2.27-2.04,3.79-5.15,3.8-8.28.02-16.56.02-24.84,0-3.1,0-5.09-1.58-5.07-3.87.03-2.29,2-3.77,5.14-3.79,4.14-.02,8.28,0,12.42,0Z"/>
  <path d="m77.33,154.25c-4.07,0-8.14.02-12.2,0-3.13-.02-5.11-1.53-5.12-3.82-.01-2.3,1.95-3.83,5.08-3.84,8.28-.02,16.56-.02,24.84,0,3.13,0,5.12,1.52,5.14,3.8.02,2.27-2,3.83-5.1,3.86-4.21.03-8.42,0-12.63,0Z"/>
  <path d="m177.36,56.83c2.22.02,4.25,1.86,4.23,3.84-.03,2-2.07,3.79-4.29,3.77-2.26-.02-4.21-1.8-4.19-3.83.02-2.03,2.01-3.8,4.26-3.78Z"/>
  <path d="m102.32,150.48c-.04-2.09,1.79-3.83,4.1-3.88,2.27-.05,4.25,1.66,4.29,3.72.05,2.05-1.84,3.84-4.12,3.89-2.26.05-4.23-1.67-4.27-3.73Z"/>
  <path d="m124.65,99.07c.07-6.33,5.88-11.42,12.93-11.32,7.08.09,12.86,5.36,12.71,11.58-.16,6.34-6.01,11.45-12.99,11.35-7.11-.11-12.71-5.25-12.65-11.6Zm17.04.06c-.05-2.05-2.01-3.72-4.32-3.69-2.34.03-4.18,1.73-4.14,3.83.04,2.09,1.94,3.73,4.29,3.69,2.31-.04,4.22-1.79,4.17-3.83Z"/>
  <path d="m154.58,128.81c-.03-6.32,5.61-11.44,12.68-11.49,7.12-.05,13.01,5.18,12.94,11.5-.07,6.3-5.84,11.43-12.84,11.43-7.03,0-12.75-5.11-12.78-11.43Zm12.86-3.79c-2.38-.03-4.24,1.58-4.28,3.69-.03,2.1,1.8,3.81,4.13,3.84,2.31.03,4.25-1.65,4.3-3.71.05-2.07-1.82-3.78-4.15-3.81Z"/>
  <path d="m161.43,93.97c2.91,0,4.87,2.36,3.98,4.86-.26.72-.66,1.41-1.07,2.08-7.14,11.35-14.3,22.7-21.46,34.04-.42.66-.85,1.35-1.41,1.91-1.33,1.31-3.44,1.58-5.09.73-1.75-.9-2.57-2.7-1.94-4.43.24-.66.58-1.3.97-1.91,7.21-11.46,14.45-22.92,21.66-34.38.98-1.57,2.09-2.92,4.37-2.89Z"/>
</svg>