<?xml version="1.0" encoding="UTF-8"?>
<svg id="Capa_1" data-name="Capa 1" xmlns="http://www.w3.org/2000/svg" viewBox="0 0 135.4 130.36">
  <path d="m6.54,69.47c1.26-.53,2.39-1,3.72-1.56,10.09,19.38,20.17,38.72,30.29,58.15,10.52-4.4,20.92-8.74,31.33-13.09.14-.18.29-.36.43-.54-.52-.26-1.15-.43-1.56-.8-18.02-16.1-36.01-32.24-54.05-48.32-1.25-1.11-1.62-2.2-1.34-3.71,1.7-9.33,3.34-18.68,5-28.02.04-.2,0-.42,0-.92-.41.6-.67.95-.9,1.33-4.76,7.68-9.49,15.38-14.3,23.04-.66,1.06-.79,1.92-.09,2.96.53.79.89,1.68,1.4,2.67-1.25.54-2.4,1.03-3.74,1.61-.93-1.81-1.95-3.55-2.67-5.39-.23-.58.19-1.49.57-2.12,4.79-7.82,9.63-15.62,14.46-23.42.24-.39.48-.79.72-1.18-1.94-2-3.96-3.92-5.78-5.97-3.45-3.89-6.31-8.11-7.45-13.05-.35-1.51-.43-3.13-.23-4.66C2.85,2.67,5.99.21,10.26.02c5.19-.23,9.68,1.61,13.98,3.91,5.51,2.96,10.21,6.78,14.34,11.16.63.67,1.21.88,2.17.74,9.63-1.4,19.27-2.79,28.92-4.1.76-.1,1.65.37,2.44.65.3.11.51.42.75.65,20.31,18.18,40.61,36.36,60.92,54.55,2.15,1.93,2.15,2.45-.03,4.4-17.05,15.26-34.09,30.53-51.14,45.79-2.21,1.98-2.83,1.98-5.02.02q-2.36-2.11-5.44-.83c-10.34,4.32-20.68,8.63-31.02,12.95-1.97.82-2.88.57-3.75-1.1-10.19-19.57-20.38-39.15-30.57-58.72-.08-.16-.15-.32-.28-.62ZM42.66,27.77c-1.63-2.54-3.12-4.9-4.69-7.23-.18-.26-.85-.41-1.25-.36-3.07.39-6.13.87-9.2,1.25-.98.12-1.27.49-1.42,1.34-2.09,12.09-4.21,24.18-6.39,36.26-.19,1.07.07,1.72.89,2.45,19.47,17.4,38.92,34.82,58.37,52.24.35.32.61.72.77.91,16.89-15.12,33.6-30.07,50.35-45.07-.19-.18-.49-.48-.81-.76-19.52-17.48-39.05-34.96-58.54-52.47-.85-.77-1.65-.8-2.67-.65-6.33.9-12.66,1.79-18.98,2.69-2.24.32-4.48.66-6.68.99,1.37,2.52,2.73,4.87,3.92,7.28.48.98.97,1.66,2.15,2.15,5.12,2.12,7.34,7.52,5.17,12.17-2.15,4.6-7.9,6.93-13.18,5.34-5.31-1.6-8.36-6.69-6.81-11.54,1.24-3.86,4.24-6.06,9.02-6.99Zm-8-11.12c-5.6-5.35-11.45-9.93-19.08-12.2-1.67-.5-3.53-.62-5.31-.63-2.13-.01-3.43,1.1-3.78,3-.15.82-.19,1.71-.02,2.53,1.4,6.98,6.15,12.19,11.51,17.34,1.47-2.38,2.89-4.58,4.2-6.83.63-1.09,1.44-1.68,2.86-1.84,3.12-.36,6.22-.87,9.63-1.36Zm4.07,24.22c1.9,1.79,3.91,2.55,6.37,2.08,2.71-.52,4.43-2.04,5.05-4.44.58-2.24-.37-4.4-2.27-5.52-1.22,5.57-3.12,7.26-9.15,7.88Zm-1.23-4.02c4.31.75,6.73-1.44,5.88-5.22-3.14.05-5.64,2.23-5.88,5.22Z"/>
</svg>