<?xml version="1.0" encoding="UTF-8"?>
<svg id="Capa_1" data-name="Capa 1" xmlns="http://www.w3.org/2000/svg" viewBox="0 0 51 45.88">
  <defs>
    <style>
      .cls-1 {
        fill: none;
        stroke: #1d1d1b;
        stroke-miterlimit: 10;
        stroke-width: 2px;
      }

      .cls-2 {
        fill: #1d1d1b;
      }
    </style>
  </defs>
  <rect class="cls-1" x="1" y="1" width="49" height="43.88" rx="12.96" ry="12.96"/>
  <g>
    <path class="cls-2" d="m18.37,16.33c.53,0,1,0,1.46,0,.78,0,1.34.47,1.35,1.11,0,.64-.55,1.13-1.32,1.13-1.45,0-2.91,0-4.36,0-.84,0-1.34-.46-1.34-1.21,0-1.34,0-2.68,0-4.01,0-.56.46-1,1.07-1.07.61-.07,1.18.25,1.35.78.05.15.05.31.05.47,0,.36,0,.73,0,1.16.12-.1.18-.15.25-.2,3.06-2.75,6.76-4,11.07-3.69,5.65.41,10.46,4.01,11.99,8.92,2.14,6.83-2.53,13.82-10.28,15.37-7.05,1.41-14.18-2.42-16.15-8.69-.34-1.07-.5-2.16-.51-3.26-.01-.68.51-1.18,1.22-1.19.73-.01,1.25.47,1.28,1.17.16,4.08,2.25,7.1,6.28,8.98,3.87,1.81,8.89,1.23,12.19-1.33,2.11-1.64,3.4-3.68,3.86-6.15.81-4.37-1.88-8.87-6.39-10.7-4.45-1.8-9.47-.94-12.85,2.2-.06.06-.12.12-.23.23Z"/>
    <path class="cls-2" d="m25.5,19.47c0-1.13,0-2.26,0-3.38,0-.55.46-1,1.04-1.07.63-.08,1.21.23,1.38.77.05.16.06.33.06.49,0,1.94,0,3.88,0,5.82,0,.19.06.32.21.46,1.56,1.39,3.11,2.78,4.66,4.17.47.42.56.94.27,1.41-.41.64-1.34.76-1.95.24-.49-.42-.95-.85-1.43-1.28-1.25-1.13-2.51-2.25-3.77-3.37-.32-.28-.47-.6-.47-1,.01-1.08,0-2.17,0-3.25h0Z"/>
  </g>
</svg>