<?xml version="1.0" encoding="UTF-8"?>
<svg id="Capa_1" data-name="Capa 1" xmlns="http://www.w3.org/2000/svg" viewBox="0 0 220.99 208.66">
  <path d="m26.77,0h132.88c.8.69,1.62,1.37,2.41,2.08,7.51,6.72,14.98,13.48,22.55,20.14,1.69,1.49,2.45,3.03,2.44,5.19-.09,14.53,0,29.07-.11,43.6-.02,2.03.64,2.87,2.75,3.6,19.13,6.59,31.73,23.5,31.29,41.75-.44,17.9-12.83,33.77-31.54,40.17-2,.69-2.51,1.55-2.48,3.35.12,7.54.05,15.08.05,22.61,0,3.34-1.11,4.33-4.91,4.34-5.61.02-11.22,0-16.83,0-.8,0-1.59.07-2.54.12,0,5.79,0,11.35,0,16.91,0,3.86-1.05,4.8-5.39,4.8-50.66,0-101.31,0-151.97,0C1.06,208.65,0,207.71,0,203.83c0-17.93,0-35.86,0-53.79C0,108.82,0,67.6,0,26.37,0,22.86,1.11,21.85,4.97,21.83c4.47-.02,8.95,0,13.42,0h6.04c0-5.97.07-11.67-.04-17.36-.04-1.94.52-3.43,2.37-4.47ZM7.46,28.47v173.54h147.86c.04-.5.1-.9.1-1.29,0-14.06-.02-28.12.04-42.18,0-1.27-.57-1.72-1.77-2.16-11.71-4.29-20.45-11.49-26.01-21.68-.86-1.59-1.81-2.09-3.75-2.09-28.82.06-57.63.04-86.45.04-.98,0-1.99.03-2.94-.17-1.87-.39-2.83-1.57-2.73-3.27.09-1.6,1.11-2.66,2.9-2.94.96-.15,1.96-.12,2.95-.12,27.83,0,55.66,0,83.49-.01.93,0,1.87-.09,2.27-.11-.26-6-.51-11.72-.76-17.64h-2.27c-27.68,0-55.36,0-83.04,0-.76,0-1.52.04-2.27-.03-2-.21-3.39-1.59-3.29-3.3.1-1.82,1.27-2.86,3.23-3.14.74-.11,1.51-.04,2.27-.04,28.51,0,57.03-.02,85.54.04,1.74,0,2.46-.49,3.07-1.91,5.11-11.89,14.32-20.29,27.42-25.21,1.73-.65,2.18-1.4,2.16-2.97-.1-6.18-.04-12.36-.04-18.54v-2.39h-2.71c-5.84,0-11.68,0-17.52,0-3.8,0-5-1.09-5.01-4.55-.01-5.23,0-10.46,0-15.69v-2.2H7.46Zm164.43,49.55c-23.01-.08-41.83,16.71-41.9,37.37-.07,20.71,18.44,37.42,41.63,37.59,23.05.17,42.06-16.75,42.09-37.45.03-20.59-18.75-37.43-41.82-37.51ZM154.6,6.65H31.81v15.18h3c32.37,0,64.74.02,97.11-.04,2.47,0,4.27.66,6,2.24,7.48,6.84,15.06,13.59,22.67,20.32,1.52,1.35,2.17,2.8,2.15,4.7-.08,6.38-.03,12.76-.03,19.15v3.62h16.88V29.04h-2.53c-5.84,0-11.67,0-17.51,0-3.89,0-4.93-.97-4.94-4.51,0-5.9,0-11.8,0-17.87Zm25,152.57h-16.73v20.97h16.73v-20.97Zm-41.99-125.79v10.78h12.03c-4.01-3.6-7.95-7.13-12.03-10.78Zm35.88-10.96c-3.86-3.43-7.83-6.94-11.42-10.13v10.13h11.42Z"/>
  <path d="m81.38,156.91c-14.77,0-29.55,0-44.32,0-.68,0-1.37.05-2.04-.03-1.88-.24-3.04-1.23-3.2-2.93-.17-1.71.8-2.89,2.62-3.36.85-.22,1.8-.19,2.7-.19,29.47,0,58.95,0,88.42,0,.38,0,.76,0,1.14,0,2.65.07,4.3,1.35,4.27,3.31-.02,1.98-1.63,3.2-4.34,3.2-15.08.01-30.16,0-45.23,0Z"/>
  <path d="m81.37,174.73c14.71,0,29.43,0,44.14,0,.76,0,1.52-.03,2.27.05,1.93.22,3,1.3,3.13,2.98.12,1.59-.79,2.76-2.52,3.22-.85.23-1.79.26-2.69.26-29.58.01-59.16.01-88.73,0-.9,0-1.84-.03-2.69-.27-1.83-.52-2.7-1.76-2.46-3.44.23-1.58,1.32-2.57,3.14-2.75.75-.08,1.51-.05,2.27-.05,14.71,0,29.43,0,44.14,0Z"/>
  <path d="m81.37,77.61c14.41,0,28.82,0,43.23,0,.53,0,1.06,0,1.59,0,3.04.04,4.78,1.23,4.77,3.28-.01,2.04-1.72,3.23-4.8,3.23-29.88,0-59.76,0-89.64,0-.68,0-1.38,0-2.03-.15-1.66-.37-2.6-1.39-2.69-2.91-.1-1.61.78-2.78,2.51-3.22.92-.24,1.95-.22,2.93-.22,14.71-.01,29.42,0,44.14,0Z"/>
  <path d="m68.5,53.37c10.53,0,21.06,0,31.58,0,3.26,0,4.97,1.15,4.93,3.29-.04,2.06-1.75,3.23-4.82,3.23-21.21,0-42.41,0-63.62,0-.53,0-1.07.02-1.59-.05-1.98-.28-3.29-1.69-3.21-3.38.09-1.71,1.49-3.01,3.55-3.05,3.63-.07,7.27-.03,10.91-.03,7.42,0,14.85,0,22.27,0Z"/>
  <path d="m165.02,117.66c3.25-2.85,6.36-5.52,9.4-8.25,4.61-4.13,9.16-8.3,13.76-12.44,3.97-3.56,9.29-3.78,12.94-.57,3.72,3.26,3.54,8.1-.48,11.75-9.47,8.6-18.96,17.19-28.45,25.76-4.43,4-9.45,4-13.92,0-5.1-4.55-10.19-9.1-15.27-13.68-4.03-3.63-4.22-8.49-.5-11.75,3.61-3.17,9.01-2.95,12.97.55,3.22,2.86,6.39,5.76,9.56,8.61Zm32.1-16.11c-1.32-.27-2.18-.63-2.95-.53-.55.07-1.02.75-1.5,1.18-8,7.23-16,14.46-24,21.69-2.62,2.37-4.28,2.36-6.92,0-3.81-3.4-7.57-6.85-11.47-10.17-.56-.48-1.78-.35-2.69-.5.14.78-.02,1.82.48,2.28,5.12,4.72,10.36,9.34,15.54,14.01,1.17,1.05,2.13.98,3.27-.06,9.52-8.65,19.07-17.27,28.6-25.92.46-.41.78-.94,1.65-2Z"/>
</svg>